<svg width="49" height="48" viewBox="0 0 49 48" fill="none" xmlns="http://www.w3.org/2000/svg">
<circle cx="24.5" cy="24" r="24" fill="#E5E5E5"/>
<g clip-path="url(#clip0_4496_8715)">
<path d="M32.5567 15.4449L33.0503 15.9332C33.7306 16.6069 33.6277 17.8013 32.8186 18.6008L22.6381 28.6712L19.3397 29.8647C18.9256 30.0154 18.5223 29.82 18.4403 29.4302C18.4125 29.2888 18.4256 29.1425 18.4779 29.0081L19.7079 25.7172L29.8599 15.6741C30.669 14.8746 31.8764 14.7711 32.5567 15.4449ZM22.1938 16.4464C22.3037 16.4464 22.4125 16.4678 22.514 16.5094C22.6155 16.551 22.7078 16.6119 22.7855 16.6888C22.8632 16.7656 22.9248 16.8569 22.9668 16.9573C23.0089 17.0577 23.0305 17.1654 23.0305 17.274C23.0305 17.3827 23.0089 17.4904 22.9668 17.5908C22.9248 17.6912 22.8632 17.7825 22.7855 17.8593C22.7078 17.9362 22.6155 17.9971 22.514 18.0387C22.4125 18.0803 22.3037 18.1017 22.1938 18.1017H18.8469C18.4031 18.1017 17.9774 18.2761 17.6636 18.5866C17.3498 18.897 17.1735 19.3181 17.1735 19.7571V29.6893C17.1735 30.1283 17.3498 30.5494 17.6636 30.8598C17.9774 31.1702 18.4031 31.3446 18.8469 31.3446H28.8876C29.3314 31.3446 29.7571 31.1702 30.0709 30.8598C30.3848 30.5494 30.5611 30.1283 30.5611 29.6893V26.3785C30.5611 26.159 30.6492 25.9485 30.8061 25.7933C30.9631 25.6381 31.1759 25.5509 31.3978 25.5509C31.6197 25.5509 31.8325 25.6381 31.9895 25.7933C32.1464 25.9485 32.2345 26.159 32.2345 26.3785V29.6893C32.2345 30.5673 31.8819 31.4094 31.2542 32.0303C30.6266 32.6512 29.7753 33 28.8876 33H18.8469C17.9593 33 17.108 32.6512 16.4803 32.0303C15.8526 31.4094 15.5 30.5673 15.5 29.6893V19.7571C15.5 18.879 15.8526 18.0369 16.4803 17.4161C17.108 16.7952 17.9593 16.4464 18.8469 16.4464H22.1938Z" fill="white"/>
</g>
<defs>
<clipPath id="clip0_4496_8715">
<rect width="30" height="30" fill="white" transform="translate(9.5 9)"/>
</clipPath>
</defs>
</svg>
