<svg width="40" height="24" viewBox="0 0 40 24" fill="none" xmlns="http://www.w3.org/2000/svg">
<rect x="32" width="6" height="6" rx="3" fill="#00D282"/>
<path d="M22.7 18.1904H17.3V19.1428C17.3 20.7208 18.5088 22 20 22C21.4912 22 22.7 20.7208 22.7 19.1428V18.1904Z" stroke="#A7A7A7" stroke-width="1.5" stroke-linecap="round" stroke-linejoin="round"/>
<path d="M12.125 18.1905H27.875C28.4963 18.1905 29 17.6727 29 17.034V16.3566C29 16.0499 28.8815 15.7557 28.6705 15.5388L28.0958 14.948C27.9544 14.8027 27.875 14.6056 27.875 14.4V10.0952C27.875 5.62435 24.3492 1.99999 20 2C15.6507 2.00001 12.125 5.62436 12.125 10.0952V14.4001C12.125 14.6056 12.0456 14.8027 11.9042 14.9481L11.3295 15.5388C11.1185 15.7557 11 16.0499 11 16.3566V17.034C11 17.6727 11.5037 18.1905 12.125 18.1905Z" stroke="#A7A7A7" stroke-width="1.5" stroke-linecap="round" stroke-linejoin="round"/>
</svg>
