<svg width="38" height="42" viewBox="0 0 38 42" fill="none" xmlns="http://www.w3.org/2000/svg">
<path d="M36.2575 28.9978C36.1019 28.8103 35.9491 28.6228 35.7991 28.4419C33.7366 25.9472 32.4887 24.4416 32.4887 17.3794C32.4887 13.7231 31.6141 10.7231 29.89 8.47312C28.6187 6.81094 26.9003 5.55 24.6353 4.61812C24.6062 4.60191 24.5801 4.58064 24.5584 4.55531C23.7438 1.82719 21.5144 0 19 0C16.4856 0 14.2572 1.82719 13.4425 4.5525C13.4208 4.5769 13.3951 4.5975 13.3666 4.61344C8.08094 6.78937 5.51219 10.9641 5.51219 17.3766C5.51219 24.4416 4.26625 25.9472 2.20188 28.4391C2.05188 28.62 1.89907 28.8037 1.74344 28.995C1.34144 29.4798 1.08674 30.0696 1.00949 30.6947C0.932229 31.3197 1.03565 31.9538 1.3075 32.5219C1.88594 33.7406 3.11875 34.4972 4.52594 34.4972H33.4844C34.885 34.4972 36.1094 33.7416 36.6897 32.5284C36.9627 31.9602 37.0671 31.3256 36.9905 30.6998C36.9139 30.0741 36.6595 29.4834 36.2575 28.9978ZM19 42C20.3547 41.9989 21.6839 41.6312 22.8465 40.9358C24.0092 40.2404 24.9619 39.2433 25.6038 38.0503C25.634 37.9931 25.6489 37.9291 25.6471 37.8645C25.6453 37.7998 25.6268 37.7367 25.5934 37.6813C25.56 37.626 25.5128 37.5802 25.4565 37.5484C25.4001 37.5166 25.3366 37.4999 25.2719 37.5H12.73C12.6652 37.4998 12.6015 37.5163 12.5451 37.548C12.4886 37.5797 12.4413 37.6255 12.4078 37.6809C12.3743 37.7364 12.3557 37.7995 12.3538 37.8642C12.352 37.929 12.3669 37.9931 12.3972 38.0503C13.0389 39.2432 13.9916 40.2402 15.154 40.9356C16.3165 41.6309 17.6454 41.9987 19 42Z" fill="#C4C4C4"/>
</svg>
