<svg width="34" height="34" viewBox="0 0 34 34" fill="none" xmlns="http://www.w3.org/2000/svg">
<rect width="34" height="34" rx="17" fill="#E5E5E5"/>
<path d="M16.9952 8.25781C20.5461 8.25781 23.4722 10.8908 23.7428 14.2961L23.7586 14.5476L23.7631 14.8002L23.762 18.855L24.805 21.3606C24.831 21.4215 24.8501 21.4846 24.8648 21.5489L24.8828 21.6459L24.8919 21.7947C24.8906 22.0435 24.8071 22.2849 24.6543 22.4814C24.5016 22.6778 24.2881 22.8181 24.0473 22.8806L23.9165 22.911L23.7642 22.9223L19.8165 22.9212L19.8109 23.1027C19.7656 23.8181 19.4494 24.4893 18.9268 24.9799C18.4042 25.4705 17.7143 25.7435 16.9975 25.7435C16.2807 25.7435 15.5908 25.4705 15.0682 24.9799C14.5456 24.4893 14.2294 23.8181 14.1841 23.1027L14.1785 22.9212H10.2307C10.1318 22.9213 10.0332 22.9085 9.93757 22.8828L9.79775 22.8355C9.57013 22.7395 9.38031 22.5715 9.25747 22.3572C9.13463 22.1429 9.08556 21.8941 9.1178 21.6492L9.14148 21.5049L9.18997 21.3606L10.2307 18.8584L10.2319 14.79L10.2364 14.5363C10.3751 11.0216 13.3565 8.25781 16.9952 8.25781ZM18.6889 22.9212H15.3061L15.314 23.0802C15.3519 23.4706 15.5244 23.8357 15.8019 24.113C16.0794 24.3903 16.4446 24.5625 16.8351 24.6002L16.9975 24.6081C17.4178 24.6081 17.823 24.4516 18.1342 24.1692C18.4455 23.8867 18.6404 23.4985 18.681 23.0802L18.6889 22.9212ZM16.9952 9.38542C14.0375 9.38542 11.6166 11.5549 11.3798 14.33L11.364 14.569L11.3595 14.8002V18.97L11.3166 19.1866L10.2307 21.7947L23.7146 21.797L23.7654 21.7947L22.6784 19.1866L22.6355 18.97V14.8114L22.631 14.5814C22.5126 11.6801 20.0364 9.38542 16.9952 9.38542Z" fill="#A7A7A7"/>
</svg>
