<svg width="40" height="24" viewBox="0 0 40 24" fill="none" xmlns="http://www.w3.org/2000/svg">
<rect x="32" width="6" height="6" rx="3" fill="#00D282"/>
<path d="M23 20H17V20.5C17 21.3284 18.3431 22 20 22C21.6569 22 23 21.3284 23 20.5V20Z" fill="#00D282"/>
<path d="M12.125 19H27.875C28.4963 19 29 18.4563 29 17.7857V17.0744C29 16.7524 28.8815 16.4435 28.6705 16.2158L28.0958 15.5954C27.9544 15.4428 27.875 15.2359 27.875 15.02V10.5C27.875 5.80557 24.3492 1.99999 20 2C15.6507 2.00001 12.125 5.80558 12.125 10.5V15.0201C12.125 15.2359 12.0456 15.4429 11.9042 15.5955L11.3295 16.2158C11.1185 16.4435 11 16.7524 11 17.0744V17.7857C11 18.4563 11.5037 19 12.125 19Z" fill="#00D282"/>
</svg>
