<svg width="10" height="11" viewBox="0 0 10 11" fill="none" xmlns="http://www.w3.org/2000/svg">
<path d="M9.47157 1.97206C9.73192 1.71171 9.73192 1.2896 9.47157 1.02925C9.21122 0.768897 8.78911 0.768897 8.52876 1.02925L5.00016 4.55784L1.47157 1.02925C1.21122 0.768897 0.789108 0.768897 0.528758 1.02925C0.268409 1.2896 0.268409 1.71171 0.528758 1.97206L4.05735 5.50065L0.528758 9.02925C0.268409 9.2896 0.268409 9.71171 0.528758 9.97206C0.789108 10.2324 1.21122 10.2324 1.47157 9.97206L5.00016 6.44346L8.52876 9.97206C8.78911 10.2324 9.21122 10.2324 9.47157 9.97206C9.73192 9.71171 9.73192 9.2896 9.47157 9.02925L5.94297 5.50065L9.47157 1.97206Z" fill="#A7A7A7"/>
</svg>
