<svg width="4" height="14" viewBox="0 0 4 14" fill="none" xmlns="http://www.w3.org/2000/svg">
<path d="M1.33268 1.66667C1.33268 2.03486 1.63116 2.33333 1.99935 2.33333C2.36754 2.33333 2.66602 2.03486 2.66602 1.66667C2.66602 1.29848 2.36754 1 1.99935 1C1.63116 1 1.33268 1.29848 1.33268 1.66667Z" stroke="#6B6A6A" stroke-width="2"/>
<path d="M1.33268 6.99967C1.33268 7.36786 1.63116 7.66634 1.99935 7.66634C2.36754 7.66634 2.66602 7.36786 2.66602 6.99967C2.66602 6.63148 2.36754 6.33301 1.99935 6.33301C1.63116 6.33301 1.33268 6.63148 1.33268 6.99967Z" stroke="#6B6A6A" stroke-width="2"/>
<path d="M1.33268 12.3337C1.33268 12.7018 1.63116 13.0003 1.99935 13.0003C2.36754 13.0003 2.66602 12.7018 2.66602 12.3337C2.66602 11.9655 2.36754 11.667 1.99935 11.667C1.63116 11.667 1.33268 11.9655 1.33268 12.3337Z" stroke="#6B6A6A" stroke-width="2"/>
</svg>
