<svg width="24" height="24" viewBox="0 0 24 24" fill="none" xmlns="http://www.w3.org/2000/svg">
<path d="M4 14C4.55228 14 5 13.5523 5 13C5 12.4477 4.55228 12 4 12C3.44772 12 3 12.4477 3 13C3 13.5523 3.44772 14 4 14Z" stroke="#C4C4C4" stroke-width="2"/>
<path d="M12 14C12.5523 14 13 13.5523 13 13C13 12.4477 12.5523 12 12 12C11.4477 12 11 12.4477 11 13C11 13.5523 11.4477 14 12 14Z" stroke="#C4C4C4" stroke-width="2"/>
<path d="M20 14C20.5523 14 21 13.5523 21 13C21 12.4477 20.5523 12 20 12C19.4477 12 19 12.4477 19 13C19 13.5523 19.4477 14 20 14Z" stroke="#C4C4C4" stroke-width="2"/>
</svg>
