<svg width="41" height="40" viewBox="0 0 41 40" fill="none" xmlns="http://www.w3.org/2000/svg">
<path d="M20.4998 39.8337C31.4535 39.8337 40.3332 30.954 40.3332 20.0003C40.3332 9.04668 31.4535 0.166992 20.4998 0.166992C9.54619 0.166992 0.666504 9.04668 0.666504 20.0003C0.666504 30.954 9.54619 39.8337 20.4998 39.8337Z" fill="#C4C4C4"/>
<path d="M21.9332 25.7789C21.9332 26.5813 21.3112 27.2033 20.5088 27.2033C19.7065 27.2033 19.0664 26.5813 19.0664 25.7789C19.0664 24.9766 19.7155 24.3545 20.5088 24.3545C21.3021 24.3545 21.9332 24.9766 21.9332 25.7789ZM19.3909 23.1014L19.1926 12.7881H21.816L21.6177 23.1014H19.3909Z" fill="#F4F4F4"/>
</svg>
