<svg width="20" height="22" viewBox="0 0 20 22" fill="none" xmlns="http://www.w3.org/2000/svg">
<path d="M12.7 17.1904H7.3V18.1428C7.3 19.7208 8.50883 21 10 21C11.4912 21 12.7 19.7208 12.7 18.1428V17.1904Z" stroke="#E5E5E5" stroke-width="1.5" stroke-linecap="round" stroke-linejoin="round"/>
<path d="M2.125 17.1905H17.875C18.4963 17.1905 19 16.6727 19 16.034V15.3566C19 15.0499 18.8815 14.7557 18.6705 14.5388L18.0958 13.948C17.9544 13.8027 17.875 13.6056 17.875 13.4V9.09523C17.875 4.62435 14.3492 0.999989 9.99998 1C5.65075 1.00001 2.125 4.62436 2.125 9.09523V13.4001C2.125 13.6056 2.04557 13.8027 1.90418 13.9481L1.3295 14.5388C1.11853 14.7557 1 15.0499 1 15.3566V16.034C1 16.6727 1.50368 17.1905 2.125 17.1905Z" stroke="#E5E5E5" stroke-width="1.5" stroke-linecap="round" stroke-linejoin="round"/>
</svg>
