<svg width="18" height="20" viewBox="0 0 18 20" fill="none" xmlns="http://www.w3.org/2000/svg">
<path d="M12 18H6V18.5C6 19.3284 7.34315 20 9 20C10.6569 20 12 19.3284 12 18.5V18Z" fill="#A7A7A7"/>
<path d="M1.125 17H16.875C17.4963 17 18 16.4563 18 15.7857V15.0744C18 14.7524 17.8815 14.4435 17.6705 14.2158L17.0958 13.5954C16.9544 13.4428 16.875 13.2359 16.875 13.02V8.49999C16.875 3.80557 13.3492 -1.15121e-05 8.99998 0C4.65075 1.15121e-05 1.125 3.80558 1.125 8.49999V13.0201C1.125 13.2359 1.04557 13.4429 0.904182 13.5955L0.329505 14.2158C0.118527 14.4435 0 14.7524 0 15.0744V15.7857C0 16.4563 0.50368 17 1.125 17Z" fill="#A7A7A7"/>
</svg>
