<svg width="20" height="22" viewBox="0 0 20 22" fill="none" xmlns="http://www.w3.org/2000/svg">
<path d="M7.3 17.1904V16.4404C6.88579 16.4404 6.55 16.7762 6.55 17.1904H7.3ZM12.7 17.1904H13.45C13.45 16.7762 13.1142 16.4404 12.7 16.4404V17.1904ZM1.3295 14.5388L1.8671 15.0618H1.8671L1.3295 14.5388ZM1.90418 13.9481L2.44177 14.4711H2.44177L1.90418 13.9481ZM18.0958 13.948L18.6334 13.4251L18.6334 13.4251L18.0958 13.948ZM18.6705 14.5388L19.2081 14.0159L19.2081 14.0159L18.6705 14.5388ZM9.99998 1L9.99998 1.75L9.99998 1ZM7.3 17.9404H12.7V16.4404H7.3V17.9404ZM11.95 17.1904V18.1428H13.45V17.1904H11.95ZM8.05 18.1428V17.1904H6.55V18.1428H8.05ZM10 20.25C8.96245 20.25 8.05 19.3471 8.05 18.1428H6.55C6.55 20.0944 8.05521 21.75 10 21.75V20.25ZM11.95 18.1428C11.95 19.3471 11.0375 20.25 10 20.25V21.75C11.9448 21.75 13.45 20.0944 13.45 18.1428H11.95ZM17.875 16.4405H2.125V17.9405H17.875V16.4405ZM1.75 16.034V15.3566H0.25V16.034H1.75ZM1.8671 15.0618L2.44177 14.4711L1.36659 13.4251L0.791913 14.0159L1.8671 15.0618ZM2.875 13.4001V9.09523H1.375V13.4001H2.875ZM17.125 9.09523V13.4H18.625V9.09523H17.125ZM17.5582 14.471L18.1329 15.0618L19.2081 14.0159L18.6334 13.4251L17.5582 14.471ZM18.25 15.3566V16.034H19.75V15.3566H18.25ZM18.1329 15.0618C18.2056 15.1365 18.25 15.2422 18.25 15.3566H19.75C19.75 14.8575 19.5573 14.3749 19.2081 14.0159L18.1329 15.0618ZM17.125 13.4C17.125 13.7979 17.2786 14.1835 17.5582 14.471L18.6334 13.4251C18.6303 13.4219 18.625 13.4132 18.625 13.4H17.125ZM18.625 9.09523C18.625 4.22977 14.7828 0.249988 9.99998 0.25L9.99998 1.75C13.9157 1.74999 17.125 5.01893 17.125 9.09523H18.625ZM2.875 9.09523C2.875 5.01894 6.08433 1.75001 9.99998 1.75L9.99998 0.25C5.21716 0.250012 1.375 4.22979 1.375 9.09523H2.875ZM2.44177 14.4711C2.72144 14.1836 2.875 13.798 2.875 13.4001H1.375C1.375 13.4133 1.3697 13.4219 1.36659 13.4251L2.44177 14.4711ZM1.75 15.3566C1.75 15.2422 1.79439 15.1365 1.8671 15.0618L0.791913 14.0159C0.44266 14.3749 0.25 14.8575 0.25 15.3566H1.75ZM2.125 16.4405C1.93726 16.4405 1.75 16.2781 1.75 16.034H0.25C0.25 17.0673 1.0701 17.9405 2.125 17.9405V16.4405ZM17.875 17.9405C18.9299 17.9405 19.75 17.0673 19.75 16.034H18.25C18.25 16.2781 18.0627 16.4405 17.875 16.4405V17.9405Z" fill="#1B1B1B"/>
</svg>
