<svg width="24" height="24" viewBox="0 0 24 24" fill="none" xmlns="http://www.w3.org/2000/svg">
<path d="M15 17H9V18C9 19.6569 10.3431 21 12 21C13.6569 21 15 19.6569 15 18V17Z" fill="#1B1B1B"/>
<path d="M5 17H19C19.5523 17 20 16.5523 20 16V15.4142C20 15.149 19.8946 14.8946 19.7071 14.7071L19.1963 14.1962C19.0706 14.0706 19 13.9001 19 13.7224V9.99998C19 6.13398 15.866 2.99997 12 2.99998C8.134 2.99999 5 6.134 5 9.99998V13.7224C5 13.9001 4.9294 14.0706 4.80372 14.1963L4.29289 14.7071C4.10536 14.8946 4 15.149 4 15.4142V16C4 16.5523 4.44772 17 5 17Z" fill="#1B1B1B"/>
<path d="M18.0182 2.01367C19.3974 3.05299 20.4839 4.43177 21.172 6.01574M5.98197 2.0137C4.60275 3.05301 3.5162 4.43179 2.82812 6.01576M9 17H15V18C15 19.6569 13.6569 21 12 21C10.3431 21 9 19.6569 9 18V17ZM19 17H5C4.44772 17 4 16.5523 4 16V15.4142C4 15.149 4.10536 14.8946 4.29289 14.7071L4.80372 14.1963C4.9294 14.0706 5 13.9001 5 13.7224V9.99998C5 6.134 8.134 2.99999 12 2.99998C15.866 2.99997 19 6.13398 19 9.99998V13.7224C19 13.9001 19.0706 14.0706 19.1963 14.1962L19.7071 14.7071C19.8946 14.8946 20 15.149 20 15.4142V16C20 16.5523 19.5523 17 19 17Z" stroke="#1B1B1B" stroke-width="1.5" stroke-linecap="round" stroke-linejoin="round"/>
</svg>
