<svg width="14" height="15" viewBox="0 0 14 15" fill="none" xmlns="http://www.w3.org/2000/svg">
<path d="M13.7071 2.66579C14.0976 2.27585 14.0976 1.64364 13.7071 1.2537C13.3166 0.863758 12.6834 0.863758 12.2929 1.2537L7 6.53865L1.70711 1.2537C1.31658 0.863758 0.683417 0.863758 0.292893 1.2537C-0.0976311 1.64364 -0.0976311 2.27585 0.292893 2.66579L5.58579 7.95075L0.292893 13.2357C-0.0976311 13.6256 -0.0976311 14.2579 0.292893 14.6478C0.683417 15.0377 1.31658 15.0377 1.70711 14.6478L7 9.36284L12.2929 14.6478C12.6834 15.0377 13.3166 15.0377 13.7071 14.6478C14.0976 14.2579 14.0976 13.6256 13.7071 13.2357L8.41421 7.95075L13.7071 2.66579Z" fill="#2D3648"/>
</svg>
