<svg width="18" height="18" viewBox="0 0 18 18" fill="none" xmlns="http://www.w3.org/2000/svg">
<path d="M9.00002 0.666504C4.39169 0.666504 0.666687 4.3915 0.666687 8.99984C0.666687 13.6082 4.39169 17.3332 9.00002 17.3332C13.6084 17.3332 17.3334 13.6082 17.3334 8.99984C17.3334 4.3915 13.6084 0.666504 9.00002 0.666504ZM12.5834 12.5832C12.5063 12.6604 12.4147 12.7217 12.3139 12.7635C12.2131 12.8053 12.105 12.8269 11.9959 12.8269C11.8867 12.8269 11.7786 12.8053 11.6778 12.7635C11.577 12.7217 11.4854 12.6604 11.4084 12.5832L9.00002 10.1748L6.59169 12.5832C6.43587 12.739 6.22454 12.8265 6.00419 12.8265C5.78383 12.8265 5.5725 12.739 5.41669 12.5832C5.26087 12.4274 5.17334 12.216 5.17334 11.9957C5.17334 11.8866 5.19483 11.7785 5.23658 11.6777C5.27834 11.5769 5.33954 11.4853 5.41669 11.4082L7.82502 8.99984L5.41669 6.5915C5.26087 6.43569 5.17334 6.22436 5.17334 6.004C5.17334 5.78365 5.26087 5.57232 5.41669 5.4165C5.5725 5.26069 5.78383 5.17315 6.00419 5.17315C6.22454 5.17315 6.43587 5.26069 6.59169 5.4165L9.00002 7.82484L11.4084 5.4165C11.4855 5.33935 11.5771 5.27815 11.6779 5.2364C11.7787 5.19464 11.8867 5.17315 11.9959 5.17315C12.105 5.17315 12.213 5.19464 12.3138 5.2364C12.4146 5.27815 12.5062 5.33935 12.5834 5.4165C12.6605 5.49366 12.7217 5.58525 12.7635 5.68605C12.8052 5.78685 12.8267 5.89489 12.8267 6.004C12.8267 6.11311 12.8052 6.22115 12.7635 6.32196C12.7217 6.42276 12.6605 6.51435 12.5834 6.5915L10.175 8.99984L12.5834 11.4082C12.9 11.7248 12.9 12.2582 12.5834 12.5832Z" fill="#6B6A6A"/>
</svg>
