<svg width="25" height="25" viewBox="0 0 25 25" fill="none" xmlns="http://www.w3.org/2000/svg">
<path d="M12.5111 9.44482C10.849 9.44482 9.44446 10.8494 9.44446 12.5115C9.44446 14.1736 10.849 15.5782 12.5111 15.5782C14.1733 15.5782 15.5778 14.1736 15.5778 12.5115C15.5778 10.8494 14.1733 9.44482 12.5111 9.44482Z" fill="white"/>
<path d="M20.6889 5.35573H18.0454L15.2783 2.58857C15.1835 2.49346 15.0709 2.41804 14.9468 2.36663C14.8228 2.31523 14.6898 2.28887 14.5555 2.28906H10.4667C10.3324 2.28887 10.1994 2.31523 10.0754 2.36663C9.95135 2.41804 9.83871 2.49346 9.74395 2.58857L6.97679 5.35573H4.33332C3.20581 5.35573 2.28888 6.27266 2.28888 7.40017V18.6446C2.28888 19.7721 3.20581 20.6891 4.33332 20.6891H20.6889C21.8164 20.6891 22.7333 19.7721 22.7333 18.6446V7.40017C22.7333 6.27266 21.8164 5.35573 20.6889 5.35573ZM12.5111 17.6224C9.74088 17.6224 7.39999 15.2815 7.39999 12.5113C7.39999 9.74106 9.74088 7.40017 12.5111 7.40017C15.2813 7.40017 17.6222 9.74106 17.6222 12.5113C17.6222 15.2815 15.2813 17.6224 12.5111 17.6224Z" fill="white"/>
</svg>
