<svg width="17" height="14" viewBox="0 0 17 14" fill="none" xmlns="http://www.w3.org/2000/svg">
<g clip-path="url(#clip0_598_13070)">
<path d="M0.418701 5.93294C0.418701 6.89961 0.775844 7.79267 1.49013 8.61211C2.20441 9.43155 3.17465 10.0788 4.40084 10.5538C5.62703 11.0288 6.96632 11.2663 8.4187 11.2663C8.83537 11.2663 9.26692 11.2441 9.71334 11.1996C10.8919 12.1718 12.261 12.8441 13.8205 13.2163C14.1122 13.2941 14.4514 13.3552 14.8383 13.3996C14.9395 13.4107 15.0303 13.3857 15.1107 13.3246C15.191 13.2635 15.2431 13.1829 15.2669 13.0829V13.0746C15.2848 13.0524 15.2863 13.0191 15.2714 12.9746C15.2565 12.9302 15.2505 12.9024 15.2535 12.8913C15.2565 12.8802 15.2431 12.8538 15.2133 12.8121L15.1598 12.7371L15.0973 12.6663L15.0258 12.5913C14.9842 12.5468 14.8919 12.451 14.7491 12.3038C14.6062 12.1566 14.5035 12.051 14.441 11.9871C14.3785 11.9232 14.2863 11.8135 14.1642 11.6579C14.0422 11.5024 13.9455 11.3607 13.8741 11.2329C13.8026 11.1052 13.7223 10.9413 13.633 10.7413C13.5437 10.5413 13.4663 10.3302 13.4008 10.1079C14.3354 9.6135 15.072 9.00239 15.6107 8.27461C16.1494 7.54683 16.4187 6.76628 16.4187 5.93294C16.4187 5.21072 16.2074 4.52044 15.7848 3.86211C15.3622 3.20378 14.7937 2.63572 14.0794 2.15794C13.3651 1.68017 12.5139 1.301 11.5258 1.02044C10.5377 0.739887 9.50203 0.599609 8.4187 0.599609C6.96632 0.599609 5.62703 0.837109 4.40084 1.31211C3.17465 1.78711 2.20441 2.43433 1.49013 3.25378C0.775844 4.07322 0.418701 4.96628 0.418701 5.93294Z" fill="#C1C1C1"/>
</g>
<defs>
<clipPath id="clip0_598_13070">
<rect width="16" height="12.8" fill="white" transform="matrix(-1 0 0 1 16.4187 0.599609)"/>
</clipPath>
</defs>
</svg>
