<svg width="34" height="34" viewBox="0 0 34 34" fill="none" xmlns="http://www.w3.org/2000/svg">
<path fill-rule="evenodd" clip-rule="evenodd" d="M27 11.1663C27 8.86515 25.1345 6.99967 22.8334 6.99967C20.5322 6.99967 18.6667 8.86515 18.6667 11.1663C18.6667 13.4675 20.5322 15.333 22.8334 15.333C25.1345 15.333 27 13.4675 27 11.1663ZM22.8334 10.333C23.2936 10.333 23.6667 10.7061 23.6667 11.1663C23.6667 11.6266 23.2936 11.9997 22.8334 11.9997C22.3731 11.9997 22 11.6266 22 11.1663C22 10.7061 22.3731 10.333 22.8334 10.333Z" fill="#2D3648"/>
<path fill-rule="evenodd" clip-rule="evenodd" d="M33.6667 5.33301C33.6667 2.57158 31.4281 0.333008 28.6667 0.333008H5.33335C2.57193 0.333008 0.333355 2.57158 0.333355 5.33301V28.6663C0.333355 31.4278 2.57193 33.6663 5.33335 33.6663H28.6667C31.4281 33.6663 33.6667 31.4278 33.6667 28.6663V5.33301ZM28.6667 3.66634C29.5872 3.66634 30.3334 4.41253 30.3334 5.33301V28.6663C30.3334 29.3811 29.8835 29.9907 29.2514 30.2275L11.5117 12.4878C10.8609 11.837 9.80559 11.837 9.15472 12.4878L3.66669 17.9759V5.33301C3.66669 4.41253 4.41288 3.66634 5.33335 3.66634H28.6667ZM3.66669 22.6899L10.3332 16.0234L24.6429 30.333H5.33335C4.41288 30.333 3.66669 29.5868 3.66669 28.6663V22.6899Z" fill="#2D3648"/>
</svg>
