<svg width="25" height="24" viewBox="0 0 25 24" fill="none" xmlns="http://www.w3.org/2000/svg">
<path d="M4.4187 14C4.97099 14 5.4187 13.5523 5.4187 13C5.4187 12.4477 4.97099 12 4.4187 12C3.86642 12 3.4187 12.4477 3.4187 13C3.4187 13.5523 3.86642 14 4.4187 14Z" stroke="#191919" stroke-width="2"/>
<path d="M12.4187 14C12.971 14 13.4187 13.5523 13.4187 13C13.4187 12.4477 12.971 12 12.4187 12C11.8664 12 11.4187 12.4477 11.4187 13C11.4187 13.5523 11.8664 14 12.4187 14Z" stroke="#191919" stroke-width="2"/>
<path d="M20.4187 14C20.971 14 21.4187 13.5523 21.4187 13C21.4187 12.4477 20.971 12 20.4187 12C19.8664 12 19.4187 12.4477 19.4187 13C19.4187 13.5523 19.8664 14 20.4187 14Z" stroke="#191919" stroke-width="2"/>
</svg>
