<svg width="16" height="16" viewBox="0 0 16 16" fill="none" xmlns="http://www.w3.org/2000/svg">
<path d="M7.33268 2.66667C7.33268 3.03486 7.63116 3.33333 7.99935 3.33333C8.36754 3.33333 8.66602 3.03486 8.66602 2.66667C8.66602 2.29848 8.36754 2 7.99935 2C7.63116 2 7.33268 2.29848 7.33268 2.66667Z" stroke="#6B6A6A" stroke-width="2"/>
<path d="M7.33268 7.99967C7.33268 8.36786 7.63116 8.66634 7.99935 8.66634C8.36754 8.66634 8.66602 8.36786 8.66602 7.99967C8.66602 7.63148 8.36754 7.33301 7.99935 7.33301C7.63116 7.33301 7.33268 7.63148 7.33268 7.99967Z" stroke="#6B6A6A" stroke-width="2"/>
<path d="M7.33268 13.3337C7.33268 13.7018 7.63116 14.0003 7.99935 14.0003C8.36754 14.0003 8.66602 13.7018 8.66602 13.3337C8.66602 12.9655 8.36754 12.667 7.99935 12.667C7.63116 12.667 7.33268 12.9655 7.33268 13.3337Z" stroke="#6B6A6A" stroke-width="2"/>
</svg>
