<svg width="43" height="43" viewBox="0 0 43 43" fill="none" xmlns="http://www.w3.org/2000/svg">
<path d="M40.6338 19.8057C40.6338 21.0713 39.5791 22.0627 38.3838 22.0627L36.1338 22.0627L36.183 33.3268C36.183 33.5166 36.1689 33.7064 36.1478 33.8963L36.1478 35.0283C36.1478 36.5822 34.8892 37.8408 33.3353 37.8408L32.2103 37.8408C32.133 37.8408 32.0556 37.8408 31.9783 37.8338C31.8799 37.8408 31.7814 37.8408 31.683 37.8408L27.7103 37.8408C26.1564 37.8408 24.8978 36.5822 24.8978 35.0283L24.8978 28.8408C24.8978 27.5963 23.8924 26.5908 22.6478 26.5908L18.1478 26.5908C16.9033 26.5908 15.8978 27.5963 15.8978 28.8408L15.8978 35.0283C15.8978 36.5822 14.6392 37.8408 13.0853 37.8408L9.15486 37.8408C9.04939 37.8408 8.94392 37.8338 8.83845 37.8268C8.75408 37.8338 8.6697 37.8408 8.58533 37.8408L7.46033 37.8408C5.90642 37.8408 4.64783 36.5822 4.64783 35.0283L4.64783 27.1533C4.64783 27.09 4.64783 27.0197 4.65486 26.9564L4.65486 22.0627L2.39783 22.0627C1.1322 22.0627 0.147827 21.0783 0.147827 19.8057C0.147827 19.1729 0.358765 18.6104 0.850952 18.1182L18.8791 2.40332C19.3713 1.91113 19.9338 1.84082 20.426 1.84082C20.9181 1.84082 21.4806 1.98145 21.9025 2.33301L39.8603 18.1182C40.4228 18.6104 40.7041 19.1729 40.6338 19.8057Z" fill="#1B1B1B"/>
<path d="M34.6478 41.2695C38.79 41.2695 42.1478 37.9117 42.1478 33.7695C42.1478 29.6274 38.79 26.2695 34.6478 26.2695C30.5057 26.2695 27.1478 29.6274 27.1478 33.7695C27.1478 37.9117 30.5057 41.2695 34.6478 41.2695Z" fill="#00D282"/>
<path d="M31.6478 34.1445L33.8978 36.3945L37.6478 31.8945" fill="#00D282"/>
<path d="M32.0014 33.791C31.8061 33.5957 31.4895 33.5957 31.2943 33.791C31.099 33.9862 31.099 34.3028 31.2943 34.4981L32.0014 33.791ZM33.8978 36.3945L33.5443 36.7481C33.6436 36.8474 33.7801 36.9004 33.9205 36.894C34.0608 36.8877 34.192 36.8225 34.2819 36.7146L33.8978 36.3945ZM38.0319 32.2146C38.2087 32.0025 38.1801 31.6872 37.9679 31.5104C37.7558 31.3336 37.4405 31.3623 37.2637 31.5744L38.0319 32.2146ZM41.6478 33.7695C41.6478 37.6355 38.5138 40.7695 34.6478 40.7695L34.6478 41.7695C39.0661 41.7695 42.6478 38.1878 42.6478 33.7695L41.6478 33.7695ZM34.6478 40.7695C30.7818 40.7695 27.6478 37.6355 27.6478 33.7695L26.6478 33.7695C26.6478 38.1878 30.2295 41.7695 34.6478 41.7695L34.6478 40.7695ZM27.6478 33.7695C27.6478 29.9035 30.7818 26.7695 34.6478 26.7695L34.6478 25.7695C30.2295 25.7695 26.6478 29.3513 26.6478 33.7695L27.6478 33.7695ZM34.6478 26.7695C38.5138 26.7695 41.6478 29.9035 41.6478 33.7695L42.6478 33.7695C42.6478 29.3513 39.0661 25.7695 34.6478 25.7695L34.6478 26.7695ZM31.2943 34.4981L33.5443 36.7481L34.2514 36.041L32.0014 33.791L31.2943 34.4981ZM34.2819 36.7146L38.0319 32.2146L37.2637 31.5744L33.5137 36.0744L34.2819 36.7146Z" fill="white"/>
</svg>
