<svg width="18" height="20" viewBox="0 0 18 20" fill="none" xmlns="http://www.w3.org/2000/svg">
<path d="M17.6158 7.64482L9.74082 0.296827C9.31666 -0.0989419 8.68334 -0.0989425 8.25918 0.296826L0.384182 7.64481C0.140041 7.87262 0 8.20172 0 8.54766V18.8003C0 19.4629 0.50368 20 1.125 20H5.625C6.24632 20 6.75 19.4629 6.75 18.8003V14.0016C6.75 13.3391 7.25368 12.802 7.875 12.802H10.125C10.7463 12.802 11.25 13.3391 11.25 14.0016V18.8003C11.25 19.4629 11.7537 20 12.375 20H16.875C17.4963 20 18 19.4629 18 18.8003V8.54766C18 8.20172 17.86 7.87262 17.6158 7.64482Z" fill="#A7A7A7"/>
</svg>
