<svg width="20" height="22" viewBox="0 0 20 22" fill="none" xmlns="http://www.w3.org/2000/svg">
<path d="M18.6158 8.64482L10.7408 1.29683C10.3167 0.901058 9.68334 0.901057 9.25918 1.29683L1.38418 8.64481C1.14004 8.87262 1 9.20172 1 9.54766V19.8003C1 20.4629 1.50368 21 2.125 21H6.625C7.24632 21 7.75 20.4629 7.75 19.8003V15.0016C7.75 14.3391 8.25368 13.802 8.875 13.802H11.125C11.7463 13.802 12.25 14.3391 12.25 15.0016V19.8003C12.25 20.4629 12.7537 21 13.375 21H17.875C18.4963 21 19 20.4629 19 19.8003V9.54766C19 9.20172 18.86 8.87262 18.6158 8.64482Z" stroke="#A7A7A7" stroke-width="1.5" stroke-linecap="round" stroke-linejoin="round"/>
</svg>
