<svg width="18" height="16" viewBox="0 0 18 16" fill="none" xmlns="http://www.w3.org/2000/svg">
<path d="M10.912 4.81983C10.912 3.94165 11.554 3.22974 12.3459 3.22974C13.1379 3.22974 13.7799 3.94165 13.7799 4.81983C13.7799 5.69801 13.1379 6.40992 12.3459 6.40992C11.554 6.40992 10.912 5.69801 10.912 4.81983Z" fill="#2D2F30"/>
<path fill-rule="evenodd" clip-rule="evenodd" d="M4.47582 0.217636C7.48626 -0.0725452 10.5137 -0.0725454 13.5242 0.217636L14.9679 0.356802C16.3494 0.489964 17.4685 1.65565 17.6747 3.17619C18.1084 6.37409 18.1084 9.62591 17.6747 12.8238C17.4685 14.3443 16.3494 15.51 14.9679 15.6432L13.5242 15.7824C10.5137 16.0725 7.48626 16.0725 4.47582 15.7824L3.03207 15.6432C1.6506 15.51 0.53146 14.3443 0.325256 12.8238C-0.108419 9.62591 -0.108419 6.37409 0.325256 3.17619C0.531459 1.65565 1.6506 0.489964 3.03206 0.356802L4.47582 0.217636ZM13.4 1.80175C10.4722 1.51953 7.52781 1.51954 4.60001 1.80175L3.15625 1.94092C2.43512 2.01043 1.85093 2.61892 1.74329 3.41264C1.49709 5.22812 1.39786 7.06187 1.44561 8.89208L5.14705 4.78768C5.28668 4.63284 5.47772 4.54872 5.6751 4.55516C5.87248 4.56159 6.05873 4.658 6.18992 4.82166L9.69977 9.2001L12.1192 8.30582C12.3898 8.20581 12.6881 8.29314 12.8789 8.52821L16.2431 12.6732C16.2483 12.6448 16.2528 12.6162 16.2567 12.5874C16.6691 9.54622 16.6691 6.45379 16.2567 3.41264C16.1491 2.61892 15.5649 2.01043 14.8437 1.94092L13.4 1.80175ZM15.3288 13.9236L12.1272 9.97898L9.70471 10.8744C9.43261 10.9749 9.13265 10.886 8.94209 10.6483L5.62334 6.50826L1.56644 11.0068C1.61308 11.5348 1.67203 12.0619 1.74329 12.5874C1.85093 13.3811 2.43512 13.9896 3.15625 14.0591L4.60001 14.1982C7.52781 14.4805 10.4722 14.4805 13.4 14.1982L14.8438 14.0591C15.0146 14.0426 15.1778 13.9959 15.3288 13.9236Z" fill="#2D2F30"/>
</svg>
