<svg width="20" height="20" viewBox="0 0 20 20" fill="none" xmlns="http://www.w3.org/2000/svg">
<path d="M4.375 10C4.20924 10 4.05027 10.0658 3.93306 10.1831C3.81585 10.3003 3.75 10.4592 3.75 10.625C3.75 10.7908 3.81585 10.9497 3.93306 11.0669C4.05027 11.1842 4.20924 11.25 4.375 11.25H15.625C15.7908 11.25 15.9497 11.1842 16.0669 11.0669C16.1842 10.9497 16.25 10.7908 16.25 10.625C16.25 10.4592 16.1842 10.3003 16.0669 10.1831C15.9497 10.0658 15.7908 10 15.625 10H4.375ZM12.8188 4.065C12.8188 4.31447 12.7196 4.55372 12.5432 4.73012C12.3668 4.90652 12.1276 5.00562 11.8781 5.00562C11.6287 5.00562 11.3894 4.90652 11.213 4.73012C11.0366 4.55372 10.9375 4.31447 10.9375 4.065C10.9375 3.81553 11.0366 3.57628 11.213 3.39988C11.3894 3.22348 11.6287 3.12437 11.8781 3.12437C12.1276 3.12437 12.3668 3.22348 12.5432 3.39988C12.7196 3.57628 12.8188 3.81553 12.8188 4.065ZM15.6275 5.00625C15.877 5.00625 16.1162 4.90715 16.2926 4.73075C16.469 4.55435 16.5681 4.31509 16.5681 4.06563C16.5681 3.81616 16.469 3.5769 16.2926 3.4005C16.1162 3.2241 15.877 3.125 15.6275 3.125C15.378 3.125 15.1388 3.2241 14.9624 3.4005C14.786 3.5769 14.6869 3.81616 14.6869 4.06563C14.6869 4.31509 14.786 4.55435 14.9624 4.73075C15.1388 4.90715 15.378 5.00625 15.6275 5.00625ZM5.31875 4.065C5.31875 4.18852 5.29442 4.31084 5.24715 4.42496C5.19988 4.53908 5.13059 4.64278 5.04325 4.73012C4.9559 4.81747 4.85221 4.88675 4.73809 4.93402C4.62396 4.9813 4.50165 5.00562 4.37813 5.00562C4.2546 5.00562 4.13229 4.9813 4.01816 4.93402C3.90404 4.88675 3.80035 4.81747 3.713 4.73012C3.62566 4.64278 3.55637 4.53908 3.5091 4.42496C3.46183 4.31084 3.4375 4.18852 3.4375 4.065C3.4375 3.81553 3.5366 3.57628 3.713 3.39988C3.8894 3.22348 4.12866 3.12437 4.37813 3.12437C4.62759 3.12437 4.86685 3.22348 5.04325 3.39988C5.21965 3.57628 5.31875 3.81553 5.31875 4.065ZM6.2475 8.13125C6.49697 8.13125 6.73622 8.03215 6.91262 7.85575C7.08902 7.67935 7.18813 7.44009 7.18813 7.19063C7.18813 6.94116 7.08902 6.7019 6.91262 6.5255C6.73622 6.3491 6.49697 6.25 6.2475 6.25C5.99803 6.25 5.75878 6.3491 5.58238 6.5255C5.40598 6.7019 5.30688 6.94116 5.30688 7.19063C5.30688 7.44009 5.40598 7.67935 5.58238 7.85575C5.75878 8.03215 5.99803 8.13125 6.2475 8.13125ZM10.9438 7.19C10.9438 7.43947 10.8446 7.67872 10.6682 7.85512C10.4918 8.03152 10.2526 8.13063 10.0031 8.13063C9.75365 8.13063 9.5144 8.03152 9.338 7.85512C9.1616 7.67872 9.0625 7.43947 9.0625 7.19C9.0625 6.94053 9.1616 6.70128 9.338 6.52488C9.5144 6.34848 9.75365 6.24937 10.0031 6.24937C10.2526 6.24937 10.4918 6.34848 10.6682 6.52488C10.8446 6.70128 10.9438 6.94053 10.9438 7.19ZM13.7587 8.13125C14.0082 8.13125 14.2475 8.03215 14.4239 7.85575C14.6003 7.67935 14.6994 7.44009 14.6994 7.19063C14.6994 6.94116 14.6003 6.7019 14.4239 6.5255C14.2475 6.3491 14.0082 6.25 13.7587 6.25C13.5093 6.25 13.27 6.3491 13.0936 6.5255C12.9172 6.7019 12.8181 6.94116 12.8181 7.19063C12.8181 7.44009 12.9172 7.67935 13.0936 7.85575C13.27 8.03215 13.5093 8.13125 13.7587 8.13125ZM9.06875 4.065C9.06875 4.31447 8.96965 4.55372 8.79325 4.73012C8.61685 4.90652 8.37759 5.00562 8.12812 5.00562C7.87865 5.00562 7.6394 4.90652 7.463 4.73012C7.2866 4.55372 7.1875 4.31447 7.1875 4.065C7.1875 3.81553 7.2866 3.57628 7.463 3.39988C7.6394 3.22348 7.87865 3.12437 8.12812 3.12437C8.37759 3.12437 8.61685 3.22348 8.79325 3.39988C8.96965 3.57628 9.06875 3.81553 9.06875 4.065ZM1.875 0C1.37772 0 0.900806 0.197544 0.549175 0.549175C0.197544 0.900806 0 1.37772 0 1.875V11.875C0 12.3723 0.197544 12.8492 0.549175 13.2008C0.900806 13.5525 1.37772 13.75 1.875 13.75H9.375V17.8662L7.9425 16.4325C7.82514 16.3151 7.66597 16.2492 7.5 16.2492C7.33403 16.2492 7.17486 16.3151 7.0575 16.4325C6.94014 16.5499 6.87421 16.709 6.87421 16.875C6.87421 17.041 6.94014 17.2001 7.0575 17.3175L9.5575 19.8175C9.61556 19.8757 9.68453 19.9219 9.76046 19.9534C9.83639 19.9849 9.91779 20.0011 10 20.0011C10.0822 20.0011 10.1636 19.9849 10.2395 19.9534C10.3155 19.9219 10.3844 19.8757 10.4425 19.8175L12.9425 17.3175C13.0599 17.2001 13.1258 17.041 13.1258 16.875C13.1258 16.709 13.0599 16.5499 12.9425 16.4325C12.8251 16.3151 12.666 16.2492 12.5 16.2492C12.334 16.2492 12.1749 16.3151 12.0575 16.4325L10.625 17.8662V13.75H18.125C18.6223 13.75 19.0992 13.5525 19.4508 13.2008C19.8025 12.8492 20 12.3723 20 11.875V1.875C20 1.37772 19.8025 0.900806 19.4508 0.549175C19.0992 0.197544 18.6223 0 18.125 0H1.875ZM18.125 12.5H1.875C1.70924 12.5 1.55027 12.4342 1.43306 12.3169C1.31585 12.1997 1.25 12.0408 1.25 11.875V1.875C1.25 1.70924 1.31585 1.55027 1.43306 1.43306C1.55027 1.31585 1.70924 1.25 1.875 1.25H18.125C18.2908 1.25 18.4497 1.31585 18.5669 1.43306C18.6842 1.55027 18.75 1.70924 18.75 1.875V11.875C18.75 12.0408 18.6842 12.1997 18.5669 12.3169C18.4497 12.4342 18.2908 12.5 18.125 12.5Z" fill="black"/>
</svg>
