<svg width="18" height="22" viewBox="0 0 18 22" fill="none" xmlns="http://www.w3.org/2000/svg">
<path d="M9 21C9 21 17 15.6154 17 8.69231C17 6.65218 16.1571 4.69561 14.6569 3.25303C13.1566 1.81044 11.1217 1 9 1C6.87827 1 4.84344 1.81044 3.34315 3.25303C1.84285 4.69561 1 6.65218 1 8.69231C1 15.6154 9 21 9 21Z" stroke="#1B1B1B" stroke-width="1.5" stroke-linecap="round" stroke-linejoin="round"/>
<path d="M9 12C10.6569 12 12 10.6569 12 9C12 7.34315 10.6569 6 9 6C7.34315 6 6 7.34315 6 9C6 10.6569 7.34315 12 9 12Z" stroke="#1B1B1B" stroke-width="1.5" stroke-linecap="round" stroke-linejoin="round"/>
</svg>
