<svg width="18" height="22" viewBox="0 0 18 22" fill="none" xmlns="http://www.w3.org/2000/svg">
<path d="M8.99999 12.38C8.27999 12.38 7.62 12.98 7.62 13.76C7.62 14.36 7.98 14.84 8.52 15.02V16.16C8.52 16.4 8.75999 16.64 8.99999 16.64C9.23999 16.64 9.47999 16.4 9.47999 16.16V15.02C10.02 14.84 10.38 14.36 10.38 13.76C10.38 12.98 9.71999 12.38 8.99999 12.38ZM8.99999 14.12C8.75999 14.12 8.57999 13.94 8.57999 13.7C8.57999 13.46 8.75999 13.28 8.99999 13.28C9.23999 13.28 9.42 13.46 9.42 13.7C9.42 13.94 9.23999 14.12 8.99999 14.12Z" fill="#111300"/>
<path d="M15.12 7.58H14.94V6.2C14.94 3.08 12.3 0.5 8.99999 0.5C5.7 0.5 3.06 3.08 3.06 6.2V7.58H2.88C1.38 7.58 0.119995 8.84 0.119995 10.34V18.8C0.119995 20.3 1.38 21.56 2.88 21.56H15.12C16.62 21.56 17.88 20.3 17.88 18.8V10.28C17.88 8.78 16.62 7.58 15.12 7.58ZM4.86 6.2C4.86 4.04 6.72 2.3 8.99999 2.3C11.28 2.3 13.14 4.04 13.14 6.2V7.52H4.86V6.2ZM16.08 18.74C16.08 19.28 15.66 19.7 15.12 19.7H2.88C2.34 19.7 1.92 19.28 1.92 18.74V10.28C1.92 9.74 2.34 9.32 2.88 9.32H15.12C15.66 9.32 16.08 9.74 16.08 10.28V18.74Z" fill="#111300"/>
</svg>
