<svg width="17" height="20" viewBox="0 0 17 20" fill="none" xmlns="http://www.w3.org/2000/svg">
<path d="M14.2 2.3C12.7 0.8 10.6 0 8.5 0C6.4 0 4.3 0.8 2.8 2.3C1.3 3.7 0.5 5.7 0.5 7.7C0.5 14.6 8.5 20 8.5 20C8.5 20 16.5 14.6 16.5 7.7C16.5 5.7 15.7 3.7 14.2 2.3ZM8.5 11.8C6.4 11.8 4.7 10.1 4.7 8C4.7 5.9 6.4 4.2 8.5 4.2C10.6 4.2 12.3 5.9 12.3 8C12.3 10.1 10.6 11.8 8.5 11.8Z" fill="#00D282"/>
<path d="M8.5 5.8C7.3 5.8 6.3 6.8 6.3 8.1C6.3 9.3 7.3 10.3 8.5 10.3C9.7 10.3 10.7 9.3 10.7 8.1C10.8 6.8 9.7 5.8 8.5 5.8Z" fill="#00D282"/>
</svg>
