<svg width="12" height="12" viewBox="0 0 12 12" fill="none" xmlns="http://www.w3.org/2000/svg">
<path d="M11.5047 5.35107L6.74969 0.948574C6.54166 0.755642 6.26841 0.648438 5.98469 0.648438C5.70096 0.648438 5.42772 0.755642 5.21969 0.948574L0.494686 5.35107C0.439856 5.40241 0.401703 5.46902 0.385172 5.54229C0.368641 5.61556 0.374493 5.6921 0.401969 5.76201C0.429446 5.83191 0.477281 5.89195 0.539278 5.93436C0.601275 5.97676 0.674577 5.99957 0.749686 5.99982H1.49969V10.4998C1.49969 10.7982 1.61821 11.0843 1.82919 11.2953C2.04017 11.5063 2.32632 11.6248 2.62469 11.6248H9.37469C9.67305 11.6248 9.9592 11.5063 10.1702 11.2953C10.3812 11.0843 10.4997 10.7982 10.4997 10.4998V5.99982H11.2497C11.3248 5.99957 11.3981 5.97676 11.4601 5.93436C11.5221 5.89195 11.5699 5.83191 11.5974 5.76201C11.6249 5.6921 11.6307 5.61556 11.6142 5.54229C11.5977 5.46902 11.5595 5.40241 11.5047 5.35107Z" fill="#00D282"/>
</svg>
