<svg width="16" height="20" viewBox="0 0 16 20" fill="none" xmlns="http://www.w3.org/2000/svg">
<path d="M13.7 2.3C12.2 0.8 10.1 0 8 0C5.9 0 3.8 0.8 2.3 2.3C0.8 3.7 0 5.7 0 7.7C0 14.6 8 20 8 20C8 20 16 14.6 16 7.7C16 5.7 15.2 3.7 13.7 2.3ZM8 11.8C5.9 11.8 4.2 10.1 4.2 8C4.2 5.9 5.9 4.2 8 4.2C10.1 4.2 11.8 5.9 11.8 8C11.8 10.1 10.1 11.8 8 11.8Z" fill="#A7A7A7"/>
<path d="M8 5.8C6.8 5.8 5.8 6.8 5.8 8.1C5.8 9.3 6.8 10.3 8 10.3C9.2 10.3 10.2 9.3 10.2 8.1C10.3 6.8 9.2 5.8 8 5.8Z" fill="#A7A7A7"/>
</svg>
