<svg width="18" height="22" viewBox="0 0 18 22" fill="none" xmlns="http://www.w3.org/2000/svg">
<path d="M9 12C7.3 12 6 10.7 6 9M9 12C10.7 12 12 10.7 12 9M9 12C10.6569 12 12 10.6569 12 9M9 12C7.34315 12 6 10.6569 6 9M6 9C6 7.3 7.3 6 9 6M6 9C6 7.34315 7.34315 6 9 6M9 6C10.7 6 12 7.3 12 9M9 6C10.6569 6 12 7.34315 12 9M14.7 3.3C13.2 1.9 11.2 1 9 1C6.8 1 4.8 1.8 3.3 3.3C1.8 4.7 1 6.7 1 8.7C1 15.6 9 21 9 21C9 21 17 15.6 17 8.7C17 6.7 16.2 4.7 14.7 3.3Z" stroke="#A7A7A7" stroke-width="1.5" stroke-linecap="round" stroke-linejoin="round"/>
</svg>
