<svg width="11" height="10" viewBox="0 0 11 10" fill="none" xmlns="http://www.w3.org/2000/svg">
<path d="M1.4375 9.69141C1.4375 9.69141 0.625 9.69141 0.625 8.94141C0.625 8.19141 1.4375 5.94141 5.5 5.94141C9.5625 5.94141 10.375 8.19141 10.375 8.94141C10.375 9.69141 9.5625 9.69141 9.5625 9.69141H1.4375ZM5.5 5.19141C6.14647 5.19141 6.76645 4.95435 7.22357 4.5324C7.68069 4.11044 7.9375 3.53814 7.9375 2.94141C7.9375 2.34467 7.68069 1.77237 7.22357 1.35042C6.76645 0.928459 6.14647 0.691406 5.5 0.691406C4.85353 0.691406 4.23355 0.928459 3.77643 1.35042C3.31931 1.77237 3.0625 2.34467 3.0625 2.94141C3.0625 3.53814 3.31931 4.11044 3.77643 4.5324C4.23355 4.95435 4.85353 5.19141 5.5 5.19141Z" fill="#6B6A6A"/>
</svg>
