<svg width="19" height="18" viewBox="0 0 19 18" fill="none" xmlns="http://www.w3.org/2000/svg">
<path d="M18.5035 8.24728C18.7099 8.09347 18.8631 7.87888 18.9415 7.63362C19.0198 7.38836 19.0195 7.12473 18.9405 6.87968C18.8614 6.63463 18.7077 6.42046 18.5008 6.2672C18.2939 6.11394 18.0442 6.02927 17.7868 6.02506L12.7868 5.83617C12.7622 5.83448 12.7386 5.82571 12.7189 5.81092C12.6992 5.79614 12.6842 5.77597 12.6757 5.75284L10.9479 1.08617C10.8611 0.848751 10.7034 0.643739 10.4962 0.498894C10.2891 0.354049 10.0424 0.276367 9.78958 0.276367C9.53678 0.276367 9.29009 0.354049 9.08291 0.498894C8.87572 0.643739 8.71805 0.848751 8.63124 1.08617L6.90902 5.76951C6.90051 5.79263 6.88549 5.8128 6.86578 5.82759C6.84606 5.84237 6.82249 5.85114 6.79791 5.85284L1.79791 6.04173C1.54047 6.04593 1.2908 6.1306 1.08391 6.28387C0.877014 6.43713 0.723276 6.6513 0.644249 6.89635C0.565221 7.14139 0.564866 7.40503 0.643235 7.65029C0.721603 7.89555 0.874764 8.11013 1.08124 8.26395L5.00347 11.3473C5.0231 11.3627 5.03777 11.3836 5.04567 11.4073C5.05357 11.431 5.05435 11.4565 5.04791 11.4806L3.69791 16.264C3.62795 16.5075 3.63473 16.7667 3.71732 17.0063C3.79991 17.2459 3.9543 17.4543 4.15949 17.603C4.36468 17.7517 4.61071 17.8336 4.86411 17.8376C5.1175 17.8415 5.36596 17.7673 5.57569 17.6251L9.72013 14.8473C9.74055 14.8332 9.76477 14.8256 9.78958 14.8256C9.81439 14.8256 9.83861 14.8332 9.85902 14.8473L14.0035 17.6251C14.2104 17.7722 14.4579 17.8512 14.7118 17.8512C14.9657 17.8512 15.2132 17.7722 15.4201 17.6251C15.6254 17.4777 15.7799 17.2704 15.8625 17.0316C15.9451 16.7929 15.9516 16.5344 15.8812 16.2917L14.5201 11.4917C14.5129 11.4676 14.5133 11.4419 14.5213 11.418C14.5292 11.3942 14.5443 11.3733 14.5646 11.3584L18.5035 8.24728Z" fill="#C1C1C1"/>
</svg>
