<svg width="20" height="20" viewBox="0 0 20 20" fill="none" xmlns="http://www.w3.org/2000/svg">
<path d="M18.9993 8.4796L18.9908 8.48619L18.9826 8.49302L14.71 12.0291C14.5717 12.1406 14.473 12.2889 14.4212 12.4517C14.3685 12.6173 14.3652 12.7946 14.4114 12.9617L15.8889 18.4212L15.89 18.4254C15.927 18.5588 15.9234 18.7015 15.8803 18.8322C15.8374 18.9621 15.7593 19.069 15.6626 19.1422C15.5654 19.2142 15.4537 19.25 15.3428 19.25C15.2314 19.25 15.1191 19.2139 15.0216 19.1412L15.0132 19.1349L15.0045 19.1288L10.5059 15.9695C10.3592 15.8652 10.1819 15.8069 9.99698 15.8069C9.81212 15.8069 9.63481 15.8652 9.48806 15.9695L4.98942 19.1288L4.98596 19.1313C4.88637 19.2021 4.7726 19.2364 4.6599 19.2346C4.54717 19.2327 4.43403 19.1947 4.33603 19.1202C4.2375 19.0454 4.15811 18.9363 4.11462 18.8041C4.07105 18.6717 4.06735 18.5272 4.10443 18.3919L4.10529 18.3887L5.57146 12.9454L5.57153 12.9454L5.57411 12.9353C5.61562 12.7721 5.61069 12.6003 5.55954 12.4395C5.50834 12.2785 5.41161 12.1316 5.27614 12.0199L5.27585 12.0197L1.0161 8.51088L1.0085 8.50462L1.00074 8.49856C0.901349 8.42098 0.822304 8.30832 0.780938 8.17267C0.739502 8.03679 0.739696 7.88981 0.781471 7.75408C0.823174 7.61858 0.902482 7.50619 1.00202 7.42893C1.10101 7.35209 1.21592 7.31276 1.33043 7.3108L1.33885 7.31066L1.34726 7.31033L6.77753 7.09537L6.78977 7.09489L6.80198 7.09401C6.98058 7.08109 7.14816 7.01445 7.285 6.90692C7.42144 6.79969 7.52082 6.65719 7.57615 6.49972L7.57623 6.49949L9.44665 1.16991L9.44709 1.16865C9.49272 1.03788 9.57355 0.930909 9.67271 0.858264C9.77135 0.786008 9.88453 0.75 9.99698 0.75C10.1094 0.75 10.2226 0.786007 10.3213 0.858264C10.4204 0.930909 10.5012 1.03788 10.5469 1.16865L10.5478 1.17142L12.4239 6.48075C12.4239 6.48086 12.4239 6.48096 12.424 6.48106C12.4793 6.63841 12.5787 6.7808 12.715 6.88795C12.8519 6.9955 13.0194 7.06212 13.198 7.07504L13.2102 7.07592L13.2225 7.07641L18.6527 7.29136L18.6612 7.29169L18.6696 7.29184C18.7841 7.2938 18.899 7.33312 18.998 7.40996C19.0975 7.48723 19.1768 7.59962 19.2185 7.73511C19.2603 7.87084 19.2605 8.01782 19.2191 8.1537C19.1777 8.28935 19.0986 8.40201 18.9993 8.4796Z" stroke="#A7A7A7" stroke-width="1.5"/>
</svg>
