<svg width="22" height="22" viewBox="0 0 22 22" fill="none" xmlns="http://www.w3.org/2000/svg">
<path d="M21.26 19.94L17 15.98C18.38 14.36 19.22 12.26 19.22 9.92C19.22 4.7 15.02 0.5 9.8 0.5C4.58001 0.5 0.380005 4.7 0.380005 9.92C0.380005 15.14 4.58001 19.34 9.8 19.34C12.02 19.34 14.12 18.56 15.74 17.24L20 21.26C20.18 21.44 20.42 21.5 20.6 21.5C20.84 21.5 21.08 21.38 21.26 21.2C21.68 20.84 21.62 20.3 21.26 19.94ZM2.24001 9.92C2.24001 5.72 5.66001 2.3 9.86001 2.3C14.06 2.3 17.48 5.72 17.48 9.92C17.48 14.12 14.06 17.54 9.86001 17.54C5.66001 17.54 2.24001 14.12 2.24001 9.92Z" fill="#111300"/>
</svg>
