<svg width="12" height="12" viewBox="0 0 12 12" fill="none" xmlns="http://www.w3.org/2000/svg">
<path d="M8.302 5.52398C8.60652 5.00503 8.73803 4.40264 8.6775 3.80398C8.588 2.91198 8.09 2.12348 7.276 1.58398L6.7235 2.41698C7.283 2.78798 7.6235 3.31648 7.6825 3.90398C7.7097 4.17703 7.67571 4.45271 7.58299 4.71098C7.49028 4.96924 7.34116 5.20359 7.1465 5.39698L6.5505 5.99298L7.3595 6.23048C9.4755 6.85048 9.5 8.97848 9.5 8.99998H10.5C10.5 8.10548 10.022 6.35748 8.302 5.52398Z" fill="#6B6A6A"/>
<path d="M4.75 6C5.853 6 6.75 5.103 6.75 4C6.75 2.897 5.853 2 4.75 2C3.647 2 2.75 2.897 2.75 4C2.75 5.103 3.647 6 4.75 6ZM4.75 3C5.3015 3 5.75 3.4485 5.75 4C5.75 4.5515 5.3015 5 4.75 5C4.1985 5 3.75 4.5515 3.75 4C3.75 3.4485 4.1985 3 4.75 3ZM5.5 6.5H4C2.3455 6.5 1 7.8455 1 9.5V10H2V9.5C2 8.397 2.897 7.5 4 7.5H5.5C6.603 7.5 7.5 8.397 7.5 9.5V10H8.5V9.5C8.5 7.8455 7.1545 6.5 5.5 6.5Z" fill="#6B6A6A"/>
</svg>
