<svg width="40" height="41" viewBox="0 0 40 41" fill="none" xmlns="http://www.w3.org/2000/svg">
<path d="M20 40.3332C30.9536 40.3332 39.8333 31.4535 39.8333 20.4998C39.8333 9.54619 30.9536 0.666504 20 0.666504C9.04634 0.666504 0.166656 9.54619 0.166656 20.4998C0.166656 31.4535 9.04634 40.3332 20 40.3332Z" fill="#010101"/>
<path d="M21.4335 26.2784C21.4335 27.0808 20.8115 27.7028 20.0091 27.7028C19.2068 27.7028 18.5667 27.0808 18.5667 26.2784C18.5667 25.4761 19.2158 24.854 20.0091 24.854C20.8024 24.854 21.4335 25.4761 21.4335 26.2784ZM18.8912 23.6009L18.6929 13.2876H21.3163L21.118 23.6009H18.8912Z" fill="white"/>
</svg>
