<svg width="20" height="20" viewBox="0 0 20 20" fill="none" xmlns="http://www.w3.org/2000/svg">
<path d="M18.4026 0.794992L18.9189 1.31124C19.6302 2.02349 19.5226 3.28612 18.6765 4.13137L8.03036 14.7775L4.58111 16.0392C4.14799 16.1985 3.72624 15.992 3.64049 15.5799C3.61151 15.4304 3.62515 15.2757 3.67986 15.1336L4.96611 11.6546L15.5825 1.03737C16.4286 0.192117 17.6912 0.0836166 18.4026 0.795867V0.794992ZM7.56574 1.85374C7.68064 1.85374 7.79442 1.87637 7.90058 1.92035C8.00674 1.96432 8.1032 2.02877 8.18445 2.11002C8.26571 2.19127 8.33016 2.28773 8.37413 2.39389C8.4181 2.50005 8.44074 2.61383 8.44074 2.72874C8.44074 2.84365 8.4181 2.95743 8.37413 3.06359C8.33016 3.16975 8.26571 3.26621 8.18445 3.34746C8.1032 3.42871 8.00674 3.49316 7.90058 3.53714C7.79442 3.58111 7.68064 3.60374 7.56574 3.60374H4.06573C3.60161 3.60374 3.15649 3.78812 2.8283 4.1163C2.50011 4.44449 2.31573 4.88961 2.31573 5.35374V15.8537C2.31573 16.3179 2.50011 16.763 2.8283 17.0912C3.15649 17.4194 3.60161 17.6037 4.06573 17.6037H14.5657C15.0299 17.6037 15.475 17.4194 15.8032 17.0912C16.1314 16.763 16.3157 16.3179 16.3157 15.8537V12.3537C16.3157 12.1217 16.4079 11.8991 16.572 11.735C16.7361 11.5709 16.9587 11.4787 17.1907 11.4787C17.4228 11.4787 17.6454 11.5709 17.8095 11.735C17.9735 11.8991 18.0657 12.1217 18.0657 12.3537V15.8537C18.0657 16.782 17.697 17.6722 17.0406 18.3286C16.3842 18.985 15.494 19.3537 14.5657 19.3537H4.06573C3.13748 19.3537 2.24724 18.985 1.59086 18.3286C0.934484 17.6722 0.565735 16.782 0.565735 15.8537V5.35374C0.565735 4.42548 0.934484 3.53524 1.59086 2.87887C2.24724 2.22249 3.13748 1.85374 4.06573 1.85374H7.56574Z" fill="white"/>
</svg>
