<svg width="24" height="24" viewBox="0 0 24 24" fill="none" xmlns="http://www.w3.org/2000/svg">
<path d="M20 4H4C3.44772 4 3 4.44772 3 5V19C3 19.5523 3.44772 20 4 20H20C20.5523 20 21 19.5523 21 19V5C21 4.44772 20.5523 4 20 4Z" stroke="#1B1B1B" stroke-width="1.5" stroke-linecap="round" stroke-linejoin="round"/>
<path d="M3 17.0016L8.22999 10.9C8.63274 10.4301 9.36128 10.4352 9.75746 10.9106L13.299 15.1604C13.6754 15.6122 14.3585 15.6431 14.7743 15.2273L16.21 13.7917C16.6314 13.3702 17.3256 13.4087 17.698 13.8741L21 18.0016" stroke="#1B1B1B" stroke-width="1.5" stroke-linecap="round" stroke-linejoin="round"/>
<path d="M14 9C14 8.44772 14.4477 8 15 8C15.5523 8 16 8.44772 16 9C16 9.55228 15.5523 10 15 10C14.4477 10 14 9.55228 14 9Z" stroke="#1B1B1B" stroke-width="1.5" stroke-linecap="round" stroke-linejoin="round"/>
</svg>
