<svg width="141" height="41" viewBox="0 0 141 41" fill="none" xmlns="http://www.w3.org/2000/svg">
<path d="M11.7401 18.4171L7.93623 22.5863V31.8657H0V4.99677C0 2.42752 2.20064 0.347656 4.91907 0.347656H7.93623V13.8903L18.2324 2.06049C19.1784 0.978205 20.5824 0.347656 22.0661 0.347656H28.7875L17.1371 13.1374L29.4447 31.8751H20.4231L11.7301 18.4265L11.7401 18.4171Z" fill="#F4F4F4"/>
<path d="M50.9233 22.3708H36.4947C36.5246 23.8766 37.0325 25.0812 38.0183 25.9658C39.0041 26.8505 40.2986 27.3022 41.8918 27.3022C44.2119 27.3022 45.9147 26.267 47.01 24.1965L52.5564 26.5964C51.6204 28.4316 50.1964 29.8621 48.3045 30.8785C46.4125 31.8949 44.2418 32.4125 41.8021 32.4125C37.9187 32.4125 34.8716 31.4055 32.6611 29.3915C30.4505 27.3775 29.3452 24.5824 29.3452 20.9967C29.3452 17.4111 30.4206 14.4748 32.5615 12.3385C34.7024 10.2115 37.61 9.13867 41.2744 9.13867C44.9388 9.13867 47.8066 10.108 49.7981 12.0467C51.7897 13.9854 52.7854 16.7147 52.7854 20.2344V20.6015C52.7854 21.5802 51.949 22.3708 50.9134 22.3708H50.9233ZM45.5064 18.2016C45.5064 16.63 45.128 15.4347 44.3812 14.6066C43.6344 13.7784 42.549 13.3643 41.145 13.3643C39.7409 13.3643 38.5858 13.7972 37.7892 14.6724C36.9926 15.5477 36.5644 16.7805 36.4947 18.3804H45.5164V18.2016H45.5064Z" fill="#F4F4F4"/>
<path d="M77.5998 22.3708H63.1712C63.2011 23.8766 63.7089 25.0812 64.6947 25.9658C65.6805 26.8505 66.975 27.3022 68.5682 27.3022C70.8884 27.3022 72.5911 26.267 73.6864 24.1965L79.2328 26.5964C78.2968 28.4316 76.8729 29.8621 74.9809 30.8785C73.089 31.8949 70.9182 32.4125 68.4786 32.4125C64.5951 32.4125 61.5481 31.4055 59.3375 29.3915C57.1269 27.3775 56.0216 24.5824 56.0216 20.9967C56.0216 17.4111 57.097 14.4748 59.2379 12.3385C61.3788 10.2115 64.2864 9.13867 67.9509 9.13867C71.6153 9.13867 74.4831 10.108 76.4746 12.0467C78.4661 13.9854 79.4619 16.7147 79.4619 20.2344V20.6015C79.4619 21.5802 78.6254 22.3708 77.5898 22.3708H77.5998ZM72.1828 18.2016C72.1828 16.63 71.8045 15.4347 71.0576 14.6066C70.3108 13.7784 69.2254 13.3643 67.8214 13.3643C66.4174 13.3643 65.2623 13.7972 64.4657 14.6724C63.6691 15.5477 63.2409 16.7805 63.1712 18.3804H72.1928V18.2016H72.1828Z" fill="#F4F4F4"/>
<path d="M89.8078 9.67511H91.4508V13.2231C92.9544 10.5033 95.3941 9.13867 98.7797 9.13867C101.628 9.13867 103.908 10.1927 105.611 12.2914C107.313 14.3901 108.17 17.204 108.17 20.7238C108.17 24.2436 107.283 27.1046 105.511 29.2221C103.739 31.3396 101.399 32.3937 98.4909 32.3937C95.5833 32.3937 93.4324 31.2832 91.7695 29.0621V40.5155H84.2117V14.9454C84.2117 12.0279 86.711 9.65629 89.8078 9.65629V9.67511ZM99.2477 25.6553C100.034 24.4412 100.423 22.8037 100.423 20.7238C100.423 18.8134 100.114 17.2887 99.4966 16.1594C98.6004 14.5313 96.5591 13.6843 94.707 14.2301C93.9104 14.4654 93.2631 14.936 92.7453 15.6606C91.9786 16.7241 91.5903 18.2487 91.5903 20.2344V21.4767C91.5903 23.3119 91.9886 24.7706 92.7852 25.8529C93.5818 26.9352 94.6572 27.4716 96.0015 27.4716C97.3458 27.4716 98.461 26.8693 99.2377 25.6553H99.2477Z" fill="#F4F4F4"/>
<path d="M118.038 0H120.577V6.4843H112.73V5.01616C112.73 2.24927 115.1 0 118.038 0ZM112.88 9.67468H120.438V31.8756H112.88V9.67468Z" fill="#F4F4F4"/>
<path d="M123.813 9.67599H127.896V9.65718C127.896 6.45738 129.977 3.58696 133.134 2.42939L135.414 1.5918V9.67599H141V14.4286H135.414V23.0869C135.414 25.3362 136.559 26.4655 138.839 26.4655C139.496 26.4655 140.213 26.3902 141 26.2397V31.8769C139.337 32.1687 137.913 32.3193 136.728 32.3193C130.843 32.3193 127.896 29.8065 127.896 24.7715V14.4286H123.813V9.67599Z" fill="#F4F4F4"/>
</svg>
