<svg width="42" height="42" viewBox="0 0 42 42" fill="none" xmlns="http://www.w3.org/2000/svg">
<path d="M21 42C32.598 42 42 32.598 42 21C42 9.40202 32.598 0 21 0C9.40202 0 0 9.40202 0 21C0 32.598 9.40202 42 21 42Z" fill="#00D282"/>
<path d="M21.6661 26H20.3339C19.5927 26 19.0017 25.5198 19.0017 24.9355L18 11.0645C18 10.4722 18.601 10 19.3322 10H22.6678C23.409 10 24 10.4802 24 11.0645L22.9983 24.9355C22.9983 25.5278 22.3973 26 21.6661 26Z" fill="white"/>
<path d="M23 30C23 28.8954 22.1046 28 21 28C19.8954 28 19 28.8954 19 30C19 31.1046 19.8954 32 21 32C22.1046 32 23 31.1046 23 30Z" fill="white"/>
</svg>
