<svg width="42" height="42" viewBox="0 0 42 42" fill="none" xmlns="http://www.w3.org/2000/svg">
<g clip-path="url(#clip0_2871_35712)">
<path d="M21 42C32.598 42 42 32.598 42 21C42 9.40202 32.598 0 21 0C9.40202 0 0 9.40202 0 21C0 32.598 9.40202 42 21 42Z" fill="#10E58E"/>
<path d="M21.6894 26.9998H20.3606C19.6213 26.9998 19.0319 26.3998 19.0319 25.6698L18.0328 8.33977C18.0328 7.59977 18.6323 7.00977 19.3616 7.00977H22.6884C23.4277 7.00977 24.0171 7.60977 24.0171 8.33977L23.0181 25.6698C23.0181 26.4098 22.4187 26.9998 21.6894 26.9998Z" fill="white"/>
<path d="M24.0171 32C24.0171 30.3431 22.6753 29 21.02 29C19.3647 29 18.0228 30.3431 18.0228 32C18.0228 33.6569 19.3647 35 21.02 35C22.6753 35 24.0171 33.6569 24.0171 32Z" fill="white"/>
</g>
<defs>
<clipPath id="clip0_2871_35712">
<rect width="42" height="42" fill="white"/>
</clipPath>
</defs>
</svg>
