<svg width="42" height="42" viewBox="0 0 42 42" fill="none" xmlns="http://www.w3.org/2000/svg">
<path d="M21 42C32.598 42 42 32.598 42 21C42 9.40202 32.598 0 21 0C9.40202 0 0 9.40202 0 21C0 32.598 9.40202 42 21 42Z" fill="#F0FFF9"/>
<path d="M32.0995 13.5098C32.0595 13.7998 31.9496 14.0898 31.7598 14.3598L27.8835 19.8898C27.8036 19.9998 27.7436 20.1098 27.6937 20.2298L26.9144 21.3498L20.4406 30.6498H11.8088C10.7498 30.6498 9.89062 29.7898 9.89062 28.7298V13.2598C9.89062 12.1998 10.7498 11.3398 11.8088 11.3398H30.1913C31.4101 11.3398 32.2393 12.4198 32.0995 13.5098Z" fill="#00D282"/>
<path d="M30.1911 30.6505H20.4404L26.9143 21.3505L27.6935 20.2305C27.4338 20.8305 27.4937 21.5405 27.8833 22.1005L31.7597 27.6305C32.6488 28.9005 31.7397 30.6505 30.1911 30.6505Z" fill="#B5FFD6"/>
</svg>
