<svg width="20" height="20" viewBox="0 0 20 20" fill="none" xmlns="http://www.w3.org/2000/svg">
<path d="M2.5 19.375H7.1875V18.125H2.5C2.3343 18.1248 2.17544 18.0589 2.05828 17.9417C1.94111 17.8246 1.8752 17.6657 1.875 17.5V12.8125H0.625V17.5C0.625558 17.9971 0.823282 18.4737 1.17479 18.8252C1.5263 19.1767 2.00289 19.3744 2.5 19.375ZM1.875 2.5C1.8752 2.3343 1.94111 2.17544 2.05828 2.05828C2.17544 1.94111 2.3343 1.8752 2.5 1.875H7.1875V0.625H2.5C2.00289 0.625558 1.5263 0.823282 1.17479 1.17479C0.823282 1.5263 0.625558 2.00289 0.625 2.5V7.1875H1.875V2.5ZM17.5 0.625H12.8125V1.875H17.5C17.6657 1.8752 17.8246 1.94111 17.9417 2.05828C18.0589 2.17544 18.1248 2.3343 18.125 2.5V7.1875H19.375V2.5C19.3744 2.00289 19.1767 1.5263 18.8252 1.17479C18.4737 0.823282 17.9971 0.625558 17.5 0.625ZM18.125 17.5C18.1248 17.6657 18.0589 17.8246 17.9417 17.9417C17.8246 18.0589 17.6657 18.1248 17.5 18.125H12.8125V19.375H17.5C17.9971 19.3744 18.4737 19.1767 18.8252 18.8252C19.1767 18.4737 19.3744 17.9971 19.375 17.5V12.8125H18.125V17.5ZM15.625 10C15.625 6.89844 13.1016 4.375 10 4.375C6.89844 4.375 4.375 6.89844 4.375 10C4.375 13.1016 6.89844 15.625 10 15.625C13.1016 15.625 15.625 13.1016 15.625 10ZM10 14.375C9.13471 14.375 8.28885 14.1184 7.56938 13.6377C6.84992 13.1569 6.28916 12.4737 5.95803 11.6742C5.62689 10.8748 5.54025 9.99515 5.70906 9.14648C5.87787 8.29781 6.29455 7.51826 6.90641 6.90641C7.51826 6.29455 8.29781 5.87787 9.14648 5.70906C9.99515 5.54025 10.8748 5.62689 11.6742 5.95803C12.4737 6.28916 13.1569 6.84992 13.6377 7.56938C14.1184 8.28885 14.375 9.13471 14.375 10C14.3737 11.1599 13.9123 12.272 13.0921 13.0921C12.272 13.9123 11.1599 14.3737 10 14.375Z" fill="#00D282"/>
</svg>
