<svg width="14" height="17" viewBox="0 0 14 17" fill="none" xmlns="http://www.w3.org/2000/svg">
<path d="M6.8125 16.375C6.7 16.375 6.595 16.345 6.4975 16.2775C6.2425 16.105 0.25 12.01 0.25 6.58C0.25 4.885 0.9325 3.295 2.1775 2.095C3.415 0.9025 5.065 0.25 6.8125 0.25C8.56 0.25 10.2025 0.9025 11.4475 2.095C12.6775 3.2725 13.375 4.9075 13.375 6.58C13.375 12.01 7.3825 16.105 7.1275 16.2775C7.03 16.3375 6.925 16.375 6.8125 16.375ZM6.8125 1.375C5.38 1.375 3.97 1.93 2.9575 2.905C1.9375 3.8875 1.375 5.1925 1.375 6.58C1.375 10.7425 5.6125 14.215 6.8125 15.115C8.0125 14.215 12.25 10.7425 12.25 6.58C12.25 5.1925 11.6875 3.8875 10.6675 2.905C9.64 1.915 8.2675 1.375 6.8125 1.375Z" fill="#A7A7A7"/>
<path d="M6.8125 9.625C5.26 9.625 4 8.365 4 6.8125C4 5.26 5.26 4 6.8125 4C8.365 4 9.625 5.26 9.625 6.8125C9.625 8.365 8.365 9.625 6.8125 9.625ZM6.8125 5.125C5.8825 5.125 5.125 5.8825 5.125 6.8125C5.125 7.7425 5.8825 8.5 6.8125 8.5C7.7425 8.5 8.5 7.7425 8.5 6.8125C8.5 5.8825 7.7425 5.125 6.8125 5.125Z" fill="#A7A7A7"/>
</svg>
