<svg width="18" height="18" viewBox="0 0 18 18" fill="none" xmlns="http://www.w3.org/2000/svg">
<path d="M16.6952 15.705L13.5002 12.735C14.5352 11.52 15.1652 9.945 15.1652 8.19C15.1652 4.275 12.0152 1.125 8.10016 1.125C4.18516 1.125 1.03516 4.275 1.03516 8.19C1.03516 12.105 4.18516 15.255 8.10016 15.255C9.76516 15.255 11.3402 14.67 12.5552 13.68L15.7502 16.695C15.8852 16.83 16.0652 16.875 16.2002 16.875C16.3802 16.875 16.5602 16.785 16.6952 16.65C17.0102 16.38 16.9652 15.975 16.6952 15.705ZM2.43016 8.19C2.43016 5.04 4.99516 2.475 8.14516 2.475C11.2952 2.475 13.8602 5.04 13.8602 8.19C13.8602 11.34 11.2952 13.905 8.14516 13.905C4.99516 13.905 2.43016 11.34 2.43016 8.19Z" fill="#A7A7A7"/>
</svg>
