<svg width="18" height="15" viewBox="0 0 18 15" fill="none" xmlns="http://www.w3.org/2000/svg">
<path fill-rule="evenodd" clip-rule="evenodd" d="M5.50194 0.5532C8.19826 0.34998 10.9065 0.363314 13.6007 0.593073L15.2245 0.731545C16.451 0.836141 17.4464 1.76696 17.6329 2.98371L17.7353 3.65203C18.0829 5.91994 18.0505 8.22991 17.6392 10.4871C17.4362 11.6009 16.4661 12.4103 15.334 12.4103H6.35756C6.15104 12.4103 5.94774 12.4615 5.76583 12.5592L1.85504 14.6609C1.62261 14.7858 1.34163 14.7794 1.11515 14.644C0.888666 14.5086 0.75 14.2642 0.75 14.0003V5.48299C0.75 2.90439 2.73741 0.761562 5.30871 0.567764L5.50194 0.5532ZM5.5 5.50029C4.80964 5.50029 4.25 6.05993 4.25 6.75029C4.25 7.44065 4.80964 8.00029 5.5 8.00029C6.19036 8.00029 6.75 7.44065 6.75 6.75029C6.75 6.05993 6.19036 5.50029 5.5 5.50029ZM9.5 5.50029C8.80964 5.50029 8.25 6.05993 8.25 6.75029C8.25 7.44065 8.80964 8.00029 9.5 8.00029C10.1904 8.00029 10.75 7.44065 10.75 6.75029C10.75 6.05993 10.1904 5.50029 9.5 5.50029ZM12.25 6.75029C12.25 6.05993 12.8096 5.50029 13.5 5.50029C14.1904 5.50029 14.75 6.05993 14.75 6.75029C14.75 7.44065 14.1904 8.00029 13.5 8.00029C12.8096 8.00029 12.25 7.44065 12.25 6.75029Z" fill="#00D282"/>
</svg>
