<svg width="19" height="18" viewBox="0 0 19 18" fill="none" xmlns="http://www.w3.org/2000/svg">
<path d="M17.5567 0.444874L18.0503 0.933206C18.7306 1.60694 18.6277 2.80128 17.8186 3.60082L7.63811 13.6712L4.33974 14.8647C3.92556 15.0154 3.52226 14.82 3.44026 14.4302C3.41254 14.2888 3.42559 14.1425 3.47791 14.0081L4.7079 10.7172L14.8599 0.674142C15.669 -0.125399 16.8764 -0.228859 17.5567 0.444874ZM7.19381 1.44637C7.30369 1.44637 7.4125 1.46778 7.51401 1.50937C7.61553 1.55097 7.70777 1.61193 7.78547 1.68879C7.86316 1.76565 7.9248 1.85689 7.96685 1.95731C8.00889 2.05773 8.03054 2.16536 8.03054 2.27405C8.03054 2.38274 8.00889 2.49037 7.96685 2.59079C7.9248 2.69121 7.86316 2.78245 7.78547 2.85931C7.70777 2.93617 7.61553 2.99713 7.51401 3.03873C7.4125 3.08032 7.30369 3.10173 7.19381 3.10173H3.8469C3.40308 3.10173 2.97743 3.27614 2.6636 3.58658C2.34976 3.89702 2.17345 4.31806 2.17345 4.75709V14.6893C2.17345 15.1283 2.34976 15.5494 2.6636 15.8598C2.97743 16.1702 3.40308 16.3446 3.8469 16.3446H13.8876C14.3314 16.3446 14.7571 16.1702 15.0709 15.8598C15.3848 15.5494 15.5611 15.1283 15.5611 14.6893V11.3785C15.5611 11.159 15.6492 10.9485 15.8061 10.7933C15.9631 10.6381 16.1759 10.5509 16.3978 10.5509C16.6197 10.5509 16.8325 10.6381 16.9895 10.7933C17.1464 10.9485 17.2345 11.159 17.2345 11.3785V14.6893C17.2345 15.5673 16.8819 16.4094 16.2542 17.0303C15.6266 17.6512 14.7753 18 13.8876 18H3.8469C2.95925 18 2.10795 17.6512 1.48029 17.0303C0.852619 16.4094 0.5 15.5673 0.5 14.6893V4.75709C0.5 3.87904 0.852619 3.03694 1.48029 2.41606C2.10795 1.79518 2.95925 1.44637 3.8469 1.44637H7.19381Z" fill="#00D282"/>
</svg>
