<svg width="18" height="18" viewBox="0 0 18 18" fill="none" xmlns="http://www.w3.org/2000/svg">
<path d="M11.0745 0.858532L17.1406 6.92456C17.6909 7.4749 18 8.22129 18 8.99955C18 9.77781 17.6909 10.5242 17.1406 11.0745L11.0745 17.1397C10.5242 17.69 9.77781 17.9991 8.99955 17.9991C8.22129 17.9991 7.4749 17.69 6.92456 17.1397L0.859435 11.0754C0.309145 10.5251 0 9.77871 0 9.00045C0 8.22219 0.309145 7.4758 0.859435 6.92547L6.92456 0.859435C7.4749 0.309146 8.22129 0 8.99955 0C9.77781 0 10.5242 0.308243 11.0745 0.858532ZM10.4361 4.68344L10.3603 4.61752C10.2452 4.53226 10.1059 4.48572 9.96267 4.48459C9.81941 4.48345 9.67947 4.52778 9.56299 4.6112L9.47902 4.68344L9.4131 4.75928C9.32784 4.87443 9.2813 5.01364 9.28016 5.15691C9.27903 5.30018 9.32336 5.44011 9.40678 5.55659L9.47902 5.64147L10.1273 6.28979H8.77381L8.62302 6.29521C8.01901 6.33205 7.44924 6.58819 7.02076 7.0155C6.59228 7.44281 6.3346 8.01188 6.29611 8.61579L6.29069 8.77471V11.7075L6.29701 11.7987C6.31931 11.9608 6.39955 12.1093 6.52287 12.2168C6.6462 12.3244 6.80429 12.3836 6.96791 12.3836C7.13152 12.3836 7.28961 12.3244 7.41294 12.2168C7.53627 12.1093 7.6165 11.9608 7.6388 11.7987L7.64512 11.7075V8.77291L7.65144 8.65733C7.67788 8.39924 7.79242 8.15813 7.97579 7.9746C8.15916 7.79106 8.40017 7.6763 8.65823 7.64963L8.77381 7.64422H10.1282L9.47811 8.29434L9.4131 8.37019C9.31529 8.5006 9.26781 8.66192 9.27936 8.82453C9.29092 8.98713 9.36074 9.14011 9.47601 9.25538C9.59128 9.37065 9.74426 9.44047 9.90687 9.45203C10.0695 9.46358 10.2308 9.4161 10.3612 9.31829L10.4361 9.25237L12.242 7.44647L12.308 7.37062C12.3932 7.25548 12.4398 7.11626 12.4409 6.973C12.442 6.82973 12.3977 6.6898 12.3143 6.57332L12.242 6.48844L10.4361 4.68344Z" fill="#1B1B1B"/>
</svg>
