<svg width="27" height="27" viewBox="0 0 27 27" fill="none" xmlns="http://www.w3.org/2000/svg">
<g filter="url(#filter0_d_3345_23756)">
<path d="M22.8331 17L19.1665 13.3333C20.0832 12 20.6663 10.4167 20.6663 8.66669C20.6663 4.33336 17.083 0.75 12.7497 0.75C8.41634 0.75 4.83301 4.33336 4.83301 8.66669C4.83301 13 8.41634 16.5834 12.7497 16.5834C14.4997 16.5834 16.0831 16 17.4164 15.0833L21.083 18.75L22.8331 17ZM7.33301 8.75001C7.33301 5.75001 9.74967 3.33334 12.7497 3.33334C15.7497 3.33334 18.1663 5.75001 18.1663 8.75001C18.1663 11.75 15.7497 14.1667 12.7497 14.1667C9.74967 14.1667 7.33301 11.75 7.33301 8.75001Z" fill="black"/>
</g>
<defs>
<filter id="filter0_d_3345_23756" x="0.833008" y="0.75" width="26" height="26" filterUnits="userSpaceOnUse" color-interpolation-filters="sRGB">
<feFlood flood-opacity="0" result="BackgroundImageFix"/>
<feColorMatrix in="SourceAlpha" type="matrix" values="0 0 0 0 0 0 0 0 0 0 0 0 0 0 0 0 0 0 127 0" result="hardAlpha"/>
<feOffset dy="4"/>
<feGaussianBlur stdDeviation="2"/>
<feComposite in2="hardAlpha" operator="out"/>
<feColorMatrix type="matrix" values="0 0 0 0 0 0 0 0 0 0 0 0 0 0 0 0 0 0 0.25 0"/>
<feBlend mode="normal" in2="BackgroundImageFix" result="effect1_dropShadow_3345_23756"/>
<feBlend mode="normal" in="SourceGraphic" in2="effect1_dropShadow_3345_23756" result="shape"/>
</filter>
</defs>
</svg>
