<svg width="22" height="22" viewBox="0 0 22 22" fill="none" xmlns="http://www.w3.org/2000/svg">
<path d="M21.2599 19.94L16.9999 15.98C18.3799 14.36 19.2199 12.26 19.2199 9.92C19.2199 4.7 15.0199 0.5 9.79988 0.5C4.57988 0.5 0.379883 4.7 0.379883 9.92C0.379883 15.14 4.57988 19.34 9.79988 19.34C12.0199 19.34 14.1199 18.56 15.7399 17.24L19.9999 21.26C20.1799 21.44 20.4199 21.5 20.5999 21.5C20.8399 21.5 21.0799 21.38 21.2599 21.2C21.6799 20.84 21.6199 20.3 21.2599 19.94ZM2.23988 9.92C2.23988 5.72 5.65988 2.3 9.85988 2.3C14.0599 2.3 17.4799 5.72 17.4799 9.92C17.4799 14.12 14.0599 17.54 9.85988 17.54C5.65988 17.54 2.23988 14.12 2.23988 9.92Z" fill="#C4C4C4"/>
</svg>
