<svg width="24" height="24" viewBox="0 0 24 24" fill="none" xmlns="http://www.w3.org/2000/svg">
<circle cx="12" cy="12" r="4" transform="rotate(-90 12 12)" stroke="#1B1B1B" stroke-width="1.5"/>
<path d="M3.86293 13.7156C2.56696 12.939 2.56696 11.061 3.86293 10.2844L4.22326 10.0685C4.97905 9.61561 5.34943 8.72146 5.13525 7.86678L5.03313 7.45931C4.66588 5.99379 5.99379 4.66588 7.45931 5.03313L7.86678 5.13524C8.72146 5.34942 9.61561 4.97905 10.0685 4.22326L10.2844 3.86293C11.061 2.56696 12.939 2.56696 13.7156 3.86293L13.9315 4.22326C14.3844 4.97905 15.2785 5.34942 16.1332 5.13524L16.5407 5.03313C18.0062 4.66588 19.3341 5.99379 18.9669 7.45931L18.8648 7.86678C18.6506 8.72146 19.0209 9.61561 19.7767 10.0685L20.1371 10.2844C21.433 11.061 21.433 12.939 20.1371 13.7156L19.7767 13.9315C19.0209 14.3844 18.6506 15.2785 18.8648 16.1332L18.9669 16.5407C19.3341 18.0062 18.0062 19.3341 16.5407 18.9669L16.1332 18.8648C15.2785 18.6506 14.3844 19.0209 13.9315 19.7767L13.7156 20.1371C12.939 21.433 11.061 21.433 10.2844 20.1371L10.0685 19.7767C9.61561 19.0209 8.72146 18.6506 7.86678 18.8648L7.45931 18.9669C5.99379 19.3341 4.66588 18.0062 5.03313 16.5407L5.13525 16.1332C5.34943 15.2785 4.97905 14.3844 4.22326 13.9315L3.86293 13.7156Z" stroke="#1B1B1B" stroke-width="1.5"/>
</svg>
