<svg width="20" height="19" viewBox="0 0 20 19" fill="none" xmlns="http://www.w3.org/2000/svg">
<path d="M16.219 1.94217C16.872 2.45417 17.322 3.28117 17.506 4.14717C17.5283 4.15422 17.55 4.16291 17.571 4.17317L19.616 5.11917C19.7303 5.17166 19.8272 5.25576 19.8952 5.36155C19.9633 5.46734 19.9996 5.59039 20 5.71617V18.0832C19.9993 18.1859 19.9747 18.2871 19.9284 18.3787C19.882 18.4704 19.815 18.5501 19.7326 18.6115C19.6503 18.6729 19.5548 18.7144 19.4537 18.7327C19.3526 18.7511 19.2487 18.7458 19.15 18.7172L13.481 17.1172L6.741 18.9752C6.61939 19.0086 6.49086 19.0072 6.37 18.9712L0.474 17.2162C0.337721 17.1761 0.21799 17.0932 0.132595 16.9797C0.047201 16.8662 0.00069966 16.7282 0 16.5862L0 3.99717C0 3.55717 0.428 3.24117 0.855 3.36517L6.557 5.02617L9.455 4.13917C9.49488 4.1274 9.5357 4.11903 9.577 4.11417C9.689 3.45817 10.002 2.82817 10.527 2.21417C11.15 1.48417 12.243 1.05617 13.308 1.00517C14.413 0.95217 15.257 1.18817 16.218 1.94117L16.219 1.94217ZM1.333 4.88017V16.0952L6.203 17.5442V6.29717L1.333 4.88017ZM9.542 5.49417L7.536 6.10717V17.3862L12.601 15.9922V12.6972C12.601 12.3332 12.9 12.0382 13.268 12.0382C13.636 12.0382 13.934 12.3332 13.934 12.6982V15.8752L18.667 17.2102V6.13517L17.547 5.61517C17.528 5.72517 17.504 5.83317 17.474 5.93817C17.2565 6.70493 16.8917 7.42196 16.4 8.04917L13.923 11.1422C13.8578 11.2235 13.7745 11.2885 13.6797 11.332C13.585 11.3754 13.4814 11.3962 13.3772 11.3926C13.273 11.389 13.1711 11.3612 13.0796 11.3113C12.9881 11.2614 12.9095 11.1908 12.85 11.1052L10.535 7.75217C10.153 7.21817 9.885 6.74217 9.734 6.31617C9.63922 6.05028 9.57481 5.77453 9.542 5.49417ZM13.372 2.32317C12.646 2.35817 11.9 2.65017 11.545 3.06517C11.118 3.56517 10.908 4.03317 10.866 4.50717C10.816 5.07817 10.85 5.48117 10.992 5.88017C11.097 6.17517 11.306 6.54917 11.629 7.00017L13.44 9.62217L15.35 7.23717C15.7353 6.74472 16.021 6.1819 16.191 5.58017C16.431 4.74017 16.069 3.50617 15.391 2.97617C14.696 2.43117 14.171 2.28417 13.373 2.32317H13.372ZM13.51 3.02017C14.614 3.02017 15.51 3.90517 15.51 4.99717C15.5086 5.25832 15.4557 5.51663 15.3544 5.75734C15.2531 5.99805 15.1053 6.21645 14.9196 6.40004C14.7339 6.58364 14.5138 6.72884 14.2719 6.82735C14.0301 6.92586 13.7712 6.97575 13.51 6.97417C12.406 6.97417 11.51 6.08917 11.51 4.99717C11.51 3.90517 12.406 3.02017 13.51 3.02017ZM13.51 4.33817C13.4229 4.33764 13.3366 4.35427 13.256 4.3871C13.1753 4.41994 13.102 4.46833 13.04 4.52953C12.9781 4.59072 12.9288 4.66351 12.895 4.74375C12.8612 4.82399 12.8435 4.9101 12.843 4.99717C12.843 5.36117 13.142 5.65617 13.51 5.65617C13.5971 5.65656 13.6834 5.63981 13.7639 5.60685C13.8445 5.5739 13.9178 5.52539 13.9797 5.46411C14.0415 5.40282 14.0907 5.32995 14.1244 5.24966C14.1581 5.16937 14.1756 5.08324 14.176 4.99617C14.1747 4.82068 14.1038 4.65287 13.979 4.52953C13.8541 4.40618 13.6855 4.33737 13.51 4.33817Z" fill="#1B1B1B"/>
</svg>
